<?xml version="1.0" encoding="UTF-8" standalone="no"?>
<!DOCTYPE svg PUBLIC "-//W3C//DTD SVG 1.1//EN"
 "http://www.w3.org/Graphics/SVG/1.1/DTD/svg11.dtd">
<!-- Generated by graphviz version 5.0.0 (20220707.1540)
 -->
<!-- Title: dependencies Pages: 1 -->
<svg width="1160pt" height="247pt"
 viewBox="0.00 0.00 1160.00 246.80" xmlns="http://www.w3.org/2000/svg" xmlns:xlink="http://www.w3.org/1999/xlink">
<g id="graph0" class="graph" transform="scale(1 1) rotate(0) translate(4 242.8)">
<title>dependencies</title>
<polygon fill="white" stroke="transparent" points="-4,4 -4,-242.8 1156,-242.8 1156,4 -4,4"/>
<text text-anchor="middle" x="576" y="-8.2" font-family="sans-serif" font-size="14.00">dependencies</text>
<g id="clust1" class="cluster">
<title>cluster_AppModule</title>
<polygon fill="none" stroke="black" stroke-dasharray="1,5" points="8,-32.8 8,-230.8 1144,-230.8 1144,-32.8 8,-32.8"/>
</g>
<g id="clust10" class="cluster">
<title>cluster_AppModule_imports</title>
<polygon fill="none" stroke="black" points="992,-40.8 992,-92.8 1136,-92.8 1136,-40.8 992,-40.8"/>
</g>
<g id="clust12" class="cluster">
<title>cluster_AppModule_bootstrap</title>
<polygon fill="none" stroke="black" points="514,-170.8 514,-222.8 638,-222.8 638,-170.8 514,-170.8"/>
</g>
<g id="clust2" class="cluster">
<title>cluster_AppModule_declarations</title>
<polygon fill="none" stroke="black" points="16,-40.8 16,-92.8 984,-92.8 984,-40.8 16,-40.8"/>
</g>
<!-- AppComponent -->
<g id="node1" class="node">
<title>AppComponent</title>
<polygon fill="#ffffb3" stroke="black" points="975.94,-84.8 870.06,-84.8 870.06,-48.8 975.94,-48.8 975.94,-84.8"/>
<text text-anchor="middle" x="923" y="-62.6" font-family="Times,serif" font-size="14.00">AppComponent</text>
</g>
<!-- AppModule -->
<g id="node8" class="node">
<title>AppModule</title>
<polygon fill="#8dd3c7" stroke="black" points="617.66,-149.8 614.66,-153.8 593.66,-153.8 590.66,-149.8 534.34,-149.8 534.34,-113.8 617.66,-113.8 617.66,-149.8"/>
<text text-anchor="middle" x="576" y="-127.6" font-family="Times,serif" font-size="14.00">AppModule</text>
</g>
<!-- AppComponent&#45;&gt;AppModule -->
<g id="edge1" class="edge">
<title>AppComponent&#45;&gt;AppModule</title>
<path fill="none" stroke="black" d="M923,-84.91C923,-104.14 923,-131.8 923,-131.8 923,-131.8 627.86,-131.8 627.86,-131.8"/>
<polygon fill="black" stroke="black" points="627.86,-128.3 617.86,-131.8 627.86,-135.3 627.86,-128.3"/>
</g>
<!-- DeletedComponent -->
<g id="node2" class="node">
<title>DeletedComponent</title>
<polygon fill="#ffffb3" stroke="black" points="852.36,-84.8 727.64,-84.8 727.64,-48.8 852.36,-48.8 852.36,-84.8"/>
<text text-anchor="middle" x="790" y="-62.6" font-family="Times,serif" font-size="14.00">DeletedComponent</text>
</g>
<!-- DeletedComponent&#45;&gt;AppModule -->
<g id="edge2" class="edge">
<title>DeletedComponent&#45;&gt;AppModule</title>
<path fill="none" stroke="black" d="M790,-84.83C790,-101.2 790,-122.8 790,-122.8 790,-122.8 627.77,-122.8 627.77,-122.8"/>
<polygon fill="black" stroke="black" points="627.77,-119.3 617.77,-122.8 627.77,-126.3 627.77,-119.3"/>
</g>
<!-- FavoriteComponent -->
<g id="node3" class="node">
<title>FavoriteComponent</title>
<polygon fill="#ffffb3" stroke="black" points="709.99,-84.8 582.01,-84.8 582.01,-48.8 709.99,-48.8 709.99,-84.8"/>
<text text-anchor="middle" x="646" y="-62.6" font-family="Times,serif" font-size="14.00">FavoriteComponent</text>
</g>
<!-- FavoriteComponent&#45;&gt;AppModule -->
<g id="edge3" class="edge">
<title>FavoriteComponent&#45;&gt;AppModule</title>
<path fill="none" stroke="black" d="M599.92,-84.91C599.92,-84.91 599.92,-103.79 599.92,-103.79"/>
<polygon fill="black" stroke="black" points="596.42,-103.79 599.92,-113.79 603.42,-103.79 596.42,-103.79"/>
</g>
<!-- LoginComponent -->
<g id="node4" class="node">
<title>LoginComponent</title>
<polygon fill="#ffffb3" stroke="black" points="564.27,-84.8 449.73,-84.8 449.73,-48.8 564.27,-48.8 564.27,-84.8"/>
<text text-anchor="middle" x="507" y="-62.6" font-family="Times,serif" font-size="14.00">LoginComponent</text>
</g>
<!-- LoginComponent&#45;&gt;AppModule -->
<g id="edge4" class="edge">
<title>LoginComponent&#45;&gt;AppModule</title>
<path fill="none" stroke="black" d="M549.28,-84.91C549.28,-84.91 549.28,-103.79 549.28,-103.79"/>
<polygon fill="black" stroke="black" points="545.78,-103.79 549.28,-113.79 552.78,-103.79 545.78,-103.79"/>
</g>
<!-- NavbarComponent -->
<g id="node5" class="node">
<title>NavbarComponent</title>
<polygon fill="#ffffb3" stroke="black" points="431.03,-84.8 308.97,-84.8 308.97,-48.8 431.03,-48.8 431.03,-84.8"/>
<text text-anchor="middle" x="370" y="-62.6" font-family="Times,serif" font-size="14.00">NavbarComponent</text>
</g>
<!-- NavbarComponent&#45;&gt;AppModule -->
<g id="edge5" class="edge">
<title>NavbarComponent&#45;&gt;AppModule</title>
<path fill="none" stroke="black" d="M370,-84.83C370,-101.2 370,-122.8 370,-122.8 370,-122.8 524.31,-122.8 524.31,-122.8"/>
<polygon fill="black" stroke="black" points="524.31,-126.3 534.31,-122.8 524.31,-119.3 524.31,-126.3"/>
</g>
<!-- NotFoundComponent -->
<g id="node6" class="node">
<title>NotFoundComponent</title>
<polygon fill="#ffffb3" stroke="black" points="291.12,-84.8 152.88,-84.8 152.88,-48.8 291.12,-48.8 291.12,-84.8"/>
<text text-anchor="middle" x="222" y="-62.6" font-family="Times,serif" font-size="14.00">NotFoundComponent</text>
</g>
<!-- NotFoundComponent&#45;&gt;AppModule -->
<g id="edge6" class="edge">
<title>NotFoundComponent&#45;&gt;AppModule</title>
<path fill="none" stroke="black" d="M222,-84.91C222,-104.14 222,-131.8 222,-131.8 222,-131.8 524,-131.8 524,-131.8"/>
<polygon fill="black" stroke="black" points="524,-135.3 534,-131.8 524,-128.3 524,-135.3"/>
</g>
<!-- TodoComponent -->
<g id="node7" class="node">
<title>TodoComponent</title>
<polygon fill="#ffffb3" stroke="black" points="134.38,-84.8 23.62,-84.8 23.62,-48.8 134.38,-48.8 134.38,-84.8"/>
<text text-anchor="middle" x="79" y="-62.6" font-family="Times,serif" font-size="14.00">TodoComponent</text>
</g>
<!-- TodoComponent&#45;&gt;AppModule -->
<g id="edge7" class="edge">
<title>TodoComponent&#45;&gt;AppModule</title>
<path fill="none" stroke="black" d="M79,-85.09C79,-107.01 79,-140.8 79,-140.8 79,-140.8 524.05,-140.8 524.05,-140.8"/>
<polygon fill="black" stroke="black" points="524.05,-144.3 534.05,-140.8 524.05,-137.3 524.05,-144.3"/>
</g>
<!-- AppComponent  -->
<g id="node10" class="node">
<title>AppComponent </title>
<polygon fill="#80b1d3" stroke="black" points="630.44,-214.8 521.56,-214.8 521.56,-178.8 630.44,-178.8 630.44,-214.8"/>
<text text-anchor="middle" x="576" y="-192.6" font-family="Times,serif" font-size="14.00">AppComponent </text>
</g>
<!-- AppModule&#45;&gt;AppComponent  -->
<g id="edge9" class="edge">
<title>AppModule&#45;&gt;AppComponent </title>
<path fill="none" stroke="black" stroke-dasharray="1,5" d="M576,-149.91C576,-149.91 576,-168.79 576,-168.79"/>
<polygon fill="black" stroke="black" points="572.5,-168.79 576,-178.79 579.5,-168.79 572.5,-168.79"/>
</g>
<!-- AppRoutingModule -->
<g id="node9" class="node">
<title>AppRoutingModule</title>
<polygon fill="#8dd3c7" stroke="black" points="1128.28,-84.8 1125.28,-88.8 1104.28,-88.8 1101.28,-84.8 999.72,-84.8 999.72,-48.8 1128.28,-48.8 1128.28,-84.8"/>
<text text-anchor="middle" x="1064" y="-62.6" font-family="Times,serif" font-size="14.00">AppRoutingModule</text>
</g>
<!-- AppRoutingModule&#45;&gt;AppModule -->
<g id="edge8" class="edge">
<title>AppRoutingModule&#45;&gt;AppModule</title>
<path fill="none" stroke="black" d="M1064,-85.09C1064,-107.01 1064,-140.8 1064,-140.8 1064,-140.8 628.03,-140.8 628.03,-140.8"/>
<polygon fill="black" stroke="black" points="628.03,-137.3 618.03,-140.8 628.03,-144.3 628.03,-137.3"/>
</g>
</g>
</svg>
