<?xml version="1.0" encoding="UTF-8" standalone="no"?>
<!DOCTYPE svg PUBLIC "-//W3C//DTD SVG 1.1//EN"
 "http://www.w3.org/Graphics/SVG/1.1/DTD/svg11.dtd">
<!-- Generated by graphviz version 5.0.0 (20220707.1540)
 -->
<!-- Title: dependencies Pages: 1 -->
<svg width="1160pt" height="247pt"
 viewBox="0.00 0.00 1160.00 246.80" xmlns="http://www.w3.org/2000/svg" xmlns:xlink="http://www.w3.org/1999/xlink">
<g id="graph0" class="graph" transform="scale(1 1) rotate(0) translate(4 242.8)">
<title>dependencies</title>
<polygon fill="white" stroke="transparent" points="-4,4 -4,-242.8 1156,-242.8 1156,4 -4,4"/>
<text text-anchor="middle" x="576" y="-8.2" font-family="sans-serif" font-size="14.00">dependencies</text>
<g id="clust1" class="cluster">
<title>cluster_AppModule</title>
<polygon fill="none" stroke="black" stroke-dasharray="1,5" points="8,-32.8 8,-230.8 1144,-230.8 1144,-32.8 8,-32.8"/>
</g>
<g id="clust2" class="cluster">
<title>cluster_AppModule_declarations</title>
<polygon fill="none" stroke="black" points="168,-40.8 168,-92.8 1136,-92.8 1136,-40.8 168,-40.8"/>
</g>
<g id="clust10" class="cluster">
<title>cluster_AppModule_imports</title>
<polygon fill="none" stroke="black" points="16,-40.8 16,-92.8 160,-92.8 160,-40.8 16,-40.8"/>
</g>
<g id="clust12" class="cluster">
<title>cluster_AppModule_bootstrap</title>
<polygon fill="none" stroke="black" points="528,-170.8 528,-222.8 652,-222.8 652,-170.8 528,-170.8"/>
</g>
<!-- AppComponent -->
<g id="node1" class="node">
<title>AppComponent</title>
<polygon fill="#ffffb3" stroke="black" points="1127.94,-84.8 1022.06,-84.8 1022.06,-48.8 1127.94,-48.8 1127.94,-84.8"/>
<text text-anchor="middle" x="1075" y="-62.6" font-family="Times,serif" font-size="14.00">AppComponent</text>
</g>
<!-- AppModule -->
<g id="node8" class="node">
<title>AppModule</title>
<polygon fill="#8dd3c7" stroke="black" points="631.66,-149.8 628.66,-153.8 607.66,-153.8 604.66,-149.8 548.34,-149.8 548.34,-113.8 631.66,-113.8 631.66,-149.8"/>
<text text-anchor="middle" x="590" y="-127.6" font-family="Times,serif" font-size="14.00">AppModule</text>
</g>
<!-- AppComponent&#45;&gt;AppModule -->
<g id="edge1" class="edge">
<title>AppComponent&#45;&gt;AppModule</title>
<path fill="none" stroke="black" d="M1075,-85.09C1075,-107.01 1075,-140.8 1075,-140.8 1075,-140.8 641.77,-140.8 641.77,-140.8"/>
<polygon fill="black" stroke="black" points="641.77,-137.3 631.77,-140.8 641.77,-144.3 641.77,-137.3"/>
</g>
<!-- DeletedComponent -->
<g id="node2" class="node">
<title>DeletedComponent</title>
<polygon fill="#ffffb3" stroke="black" points="1004.36,-84.8 879.64,-84.8 879.64,-48.8 1004.36,-48.8 1004.36,-84.8"/>
<text text-anchor="middle" x="942" y="-62.6" font-family="Times,serif" font-size="14.00">DeletedComponent</text>
</g>
<!-- DeletedComponent&#45;&gt;AppModule -->
<g id="edge2" class="edge">
<title>DeletedComponent&#45;&gt;AppModule</title>
<path fill="none" stroke="black" d="M942,-84.91C942,-104.14 942,-131.8 942,-131.8 942,-131.8 641.76,-131.8 641.76,-131.8"/>
<polygon fill="black" stroke="black" points="641.76,-128.3 631.76,-131.8 641.76,-135.3 641.76,-128.3"/>
</g>
<!-- FavoriteComponent -->
<g id="node3" class="node">
<title>FavoriteComponent</title>
<polygon fill="#ffffb3" stroke="black" points="861.99,-84.8 734.01,-84.8 734.01,-48.8 861.99,-48.8 861.99,-84.8"/>
<text text-anchor="middle" x="798" y="-62.6" font-family="Times,serif" font-size="14.00">FavoriteComponent</text>
</g>
<!-- FavoriteComponent&#45;&gt;AppModule -->
<g id="edge3" class="edge">
<title>FavoriteComponent&#45;&gt;AppModule</title>
<path fill="none" stroke="black" d="M798,-84.83C798,-101.2 798,-122.8 798,-122.8 798,-122.8 642.09,-122.8 642.09,-122.8"/>
<polygon fill="black" stroke="black" points="642.09,-119.3 632.09,-122.8 642.09,-126.3 642.09,-119.3"/>
</g>
<!-- LoginComponent -->
<g id="node4" class="node">
<title>LoginComponent</title>
<polygon fill="#ffffb3" stroke="black" points="716.27,-84.8 601.73,-84.8 601.73,-48.8 716.27,-48.8 716.27,-84.8"/>
<text text-anchor="middle" x="659" y="-62.6" font-family="Times,serif" font-size="14.00">LoginComponent</text>
</g>
<!-- LoginComponent&#45;&gt;AppModule -->
<g id="edge4" class="edge">
<title>LoginComponent&#45;&gt;AppModule</title>
<path fill="none" stroke="black" d="M616.72,-84.91C616.72,-84.91 616.72,-103.79 616.72,-103.79"/>
<polygon fill="black" stroke="black" points="613.22,-103.79 616.72,-113.79 620.22,-103.79 613.22,-103.79"/>
</g>
<!-- NavbarComponent -->
<g id="node5" class="node">
<title>NavbarComponent</title>
<polygon fill="#ffffb3" stroke="black" points="583.03,-84.8 460.97,-84.8 460.97,-48.8 583.03,-48.8 583.03,-84.8"/>
<text text-anchor="middle" x="522" y="-62.6" font-family="Times,serif" font-size="14.00">NavbarComponent</text>
</g>
<!-- NavbarComponent&#45;&gt;AppModule -->
<g id="edge5" class="edge">
<title>NavbarComponent&#45;&gt;AppModule</title>
<path fill="none" stroke="black" d="M565.72,-84.91C565.72,-84.91 565.72,-103.79 565.72,-103.79"/>
<polygon fill="black" stroke="black" points="562.22,-103.79 565.72,-113.79 569.22,-103.79 562.22,-103.79"/>
</g>
<!-- NotFoundComponent -->
<g id="node6" class="node">
<title>NotFoundComponent</title>
<polygon fill="#ffffb3" stroke="black" points="443.12,-84.8 304.88,-84.8 304.88,-48.8 443.12,-48.8 443.12,-84.8"/>
<text text-anchor="middle" x="374" y="-62.6" font-family="Times,serif" font-size="14.00">NotFoundComponent</text>
</g>
<!-- NotFoundComponent&#45;&gt;AppModule -->
<g id="edge6" class="edge">
<title>NotFoundComponent&#45;&gt;AppModule</title>
<path fill="none" stroke="black" d="M374,-84.83C374,-101.2 374,-122.8 374,-122.8 374,-122.8 538.1,-122.8 538.1,-122.8"/>
<polygon fill="black" stroke="black" points="538.1,-126.3 548.1,-122.8 538.1,-119.3 538.1,-126.3"/>
</g>
<!-- TodoComponent -->
<g id="node7" class="node">
<title>TodoComponent</title>
<polygon fill="#ffffb3" stroke="black" points="286.38,-84.8 175.62,-84.8 175.62,-48.8 286.38,-48.8 286.38,-84.8"/>
<text text-anchor="middle" x="231" y="-62.6" font-family="Times,serif" font-size="14.00">TodoComponent</text>
</g>
<!-- TodoComponent&#45;&gt;AppModule -->
<g id="edge7" class="edge">
<title>TodoComponent&#45;&gt;AppModule</title>
<path fill="none" stroke="black" d="M231,-84.91C231,-104.14 231,-131.8 231,-131.8 231,-131.8 538.12,-131.8 538.12,-131.8"/>
<polygon fill="black" stroke="black" points="538.12,-135.3 548.12,-131.8 538.12,-128.3 538.12,-135.3"/>
</g>
<!-- AppComponent  -->
<g id="node10" class="node">
<title>AppComponent </title>
<polygon fill="#80b1d3" stroke="black" points="644.44,-214.8 535.56,-214.8 535.56,-178.8 644.44,-178.8 644.44,-214.8"/>
<text text-anchor="middle" x="590" y="-192.6" font-family="Times,serif" font-size="14.00">AppComponent </text>
</g>
<!-- AppModule&#45;&gt;AppComponent  -->
<g id="edge9" class="edge">
<title>AppModule&#45;&gt;AppComponent </title>
<path fill="none" stroke="black" stroke-dasharray="1,5" d="M590,-149.91C590,-149.91 590,-168.79 590,-168.79"/>
<polygon fill="black" stroke="black" points="586.5,-168.79 590,-178.79 593.5,-168.79 586.5,-168.79"/>
</g>
<!-- AppRoutingModule -->
<g id="node9" class="node">
<title>AppRoutingModule</title>
<polygon fill="#8dd3c7" stroke="black" points="152.28,-84.8 149.28,-88.8 128.28,-88.8 125.28,-84.8 23.72,-84.8 23.72,-48.8 152.28,-48.8 152.28,-84.8"/>
<text text-anchor="middle" x="88" y="-62.6" font-family="Times,serif" font-size="14.00">AppRoutingModule</text>
</g>
<!-- AppRoutingModule&#45;&gt;AppModule -->
<g id="edge8" class="edge">
<title>AppRoutingModule&#45;&gt;AppModule</title>
<path fill="none" stroke="black" d="M88,-85.09C88,-107.01 88,-140.8 88,-140.8 88,-140.8 538.06,-140.8 538.06,-140.8"/>
<polygon fill="black" stroke="black" points="538.06,-144.3 548.06,-140.8 538.06,-137.3 538.06,-144.3"/>
</g>
</g>
</svg>
